<svg width="10" height="6" viewBox="0 0 10 6" fill="none" xmlns="http://www.w3.org/2000/svg">
<g clip-path="url(#clip0_218_24)">
<path d="M9.84736 0.853392L5.34736 5.3534C5.25359 5.44713 5.12644 5.49979 4.99386 5.49979C4.86127 5.49979 4.73412 5.44713 4.64036 5.3534L0.140356 0.853392C0.0492769 0.759091 -0.00112031 0.632791 1.89014e-05 0.501692C0.00115811 0.370594 0.0537425 0.245188 0.146447 0.152484C0.239151 0.0597799 0.364557 0.00719504 0.495655 0.00605583C0.626754 0.00491663 0.753055 0.0553138 0.847356 0.146392L4.99336 4.2934L9.13936 0.146392C9.23312 0.0526573 9.36027 0 9.49286 0C9.62544 0 9.75259 0.0526573 9.84636 0.146392C9.94009 0.240156 9.99275 0.367311 9.99275 0.499893C9.99275 0.632475 9.94109 0.759628 9.84736 0.853392Z" fill="white"/>
</g>
<defs>
<clipPath id="clip0_218_24">
<rect width="10" height="6" fill="white"/>
</clipPath>
</defs>
</svg>
