<svg width="24" height="24" viewBox="0 0 24 24" fill="none" xmlns="http://www.w3.org/2000/svg">
<circle cx="12" cy="12" r="11.1" stroke="#E1252D" stroke-width="1.8"/>
<path d="M9.12207 16.7266L13.8418 12.0049V12.0059L13.8467 12L13.8525 11.9941L9.12598 7.26855C9.04723 7.18977 9.00783 7.09991 9.00781 6.99805C9.00781 6.8961 9.04712 6.8054 9.12598 6.72656L9.72754 6.12598C9.80632 6.04725 9.8962 6.00787 9.99805 6.00781C10.1 6.00781 10.1907 6.04714 10.2695 6.12598L15.874 11.7285C15.9529 11.8074 15.9922 11.8981 15.9922 12C15.9922 12.1019 15.9529 12.1926 15.874 12.2715L10.2695 17.874C10.1907 17.9529 10.1 17.9922 9.99805 17.9922C9.8962 17.9921 9.80632 17.9527 9.72754 17.874L9.12598 17.2734C9.04712 17.1946 9.00781 17.1039 9.00781 17.002C9.00783 16.9001 9.04723 16.8102 9.12598 16.7314L13.8525 12.0059L9.12598 16.7305M9.12207 16.7266L9.12598 16.7305M9.12207 16.7266L9.12598 16.7305M9.12207 16.7266L9.10742 16.7402C9.09213 16.7567 9.07841 16.7735 9.06641 16.791L9.12598 16.7305" fill="#E1252D" stroke="#E1252D" stroke-width="0.015625"/>
</svg>
